<svg width="25" height="25" viewBox="0 0 25 25" fill="none" xmlns="http://www.w3.org/2000/svg">
<path d="M16.6206 13.4006V17.7635C16.6206 21.3993 15.1663 22.8536 11.5305 22.8536H7.16764C3.53188 22.8536 2.07758 21.3993 2.07758 17.7635V13.4006C2.07758 9.76485 3.53188 8.31055 7.16764 8.31055H11.5305C15.1663 8.31055 16.6206 9.76485 16.6206 13.4006Z" stroke="#424242" stroke-width="2.19979" stroke-linecap="round" stroke-linejoin="round"/>
<path d="M22.8533 7.1677V11.5306C22.8533 15.1664 21.399 16.6207 17.7633 16.6207H16.6206V13.4004C16.6206 9.76467 15.1663 8.31037 11.5305 8.31037H8.3103V7.1677C8.3103 3.53194 9.76461 2.07764 13.4004 2.07764H17.7633C21.399 2.07764 22.8533 3.53194 22.8533 7.1677Z" stroke="#424242" stroke-width="2.19979" stroke-linecap="round" stroke-linejoin="round"/>
</svg>
