<svg width="16" height="21" viewBox="0 0 16 21" fill="none" xmlns="http://www.w3.org/2000/svg">
<path d="M11.4398 7.63023C11.5657 7.21112 11.6814 6.78801 11.8213 6.37346C11.8902 6.16848 11.9698 5.9515 12.1018 5.78705C12.502 5.28971 13.2024 5.37251 13.5415 5.92752C14.3932 7.32132 14.8774 8.85502 15.2155 10.4401C15.5298 11.9167 15.575 13.4013 15.0795 14.8465C14.0625 17.8128 12.0268 19.6617 8.95994 20.2184C6.6127 20.6444 4.45226 20.0814 2.61014 18.5209C0.839691 17.0214 0.00949399 15.0578 -0.00010041 12.7338C-0.00461542 11.65 0.101487 10.5783 0.575563 9.59103C0.977399 8.75452 1.54234 8.03449 2.20435 7.37728C3.36866 6.22101 4.23441 4.88316 4.4105 3.18787C4.4771 2.54436 4.55611 1.90142 4.59223 1.25562C4.61706 0.80967 4.81967 0.522459 5.20458 0.341453C5.50144 0.201558 5.78419 0.278643 6.02349 0.456223C7.4333 1.50286 8.75958 2.638 9.71281 4.14943C10.3782 5.20349 10.9031 6.32721 11.3179 7.50404C11.332 7.54401 11.3495 7.58226 11.3653 7.62166L11.4398 7.6308V7.63023ZM6.27746 3.02285C6.23908 3.06968 6.22497 3.07881 6.22328 3.09023C6.18377 3.29979 6.13975 3.50877 6.10814 3.71947C5.8728 5.30456 5.20006 6.68523 4.18249 7.90202C3.78743 8.37424 3.37882 8.83503 2.98206 9.3061C2.5695 9.79488 2.16033 10.2888 2.02319 10.9409C1.95603 11.2606 1.88717 11.5815 1.85162 11.9053C1.73761 12.9371 1.80082 13.9517 2.18742 14.9287C3.29642 17.7317 6.40218 19.2335 9.32226 18.3775C11.5967 17.7106 13.2791 15.6898 13.5105 13.3333C13.6606 11.8031 13.4067 10.3362 12.7836 8.9281C12.7108 9.02803 12.6447 9.14737 12.5522 9.24044C12.2136 9.58018 11.8986 9.95647 11.5143 10.234C10.9499 10.6411 10.1942 10.3076 10.0396 9.65384C9.90188 9.07428 9.76022 8.493 9.56608 7.93114C9.07112 6.49737 8.44692 5.13097 7.35711 4.0398C7.00832 3.69092 6.63979 3.3626 6.27858 3.02285H6.27746Z" fill="#9CFF3C"/>
</svg>
