<svg width="89" height="23" viewBox="0 0 89 23" fill="none" xmlns="http://www.w3.org/2000/svg">
<g clip-path="url(#clip0_211_849)">
<path d="M35.8822 19.1089L35.585 19.1832C34.7926 19.4311 33.9754 19.3815 33.5049 19.1089C33.3811 19.0345 33.2572 18.7619 33.2572 18.167V9.81468H36.006C36.5013 9.81468 36.947 9.6164 37.2937 9.26942C37.6156 8.92244 37.789 8.5011 37.789 8.03019C37.789 7.55929 37.6156 7.08838 37.2689 6.76619C36.9222 6.4192 36.5013 6.24571 36.006 6.24571H33.2572V4.48601C33.2572 4.16382 33.1334 3.8664 32.9353 3.66813C32.4896 3.17244 31.7219 3.12287 31.1276 3.71769L27.1407 7.63364C26.7197 7.95584 26.6454 8.35239 26.6454 8.62502C26.6454 8.94722 26.7692 9.24463 26.9921 9.46769C27.2149 9.69075 27.5121 9.81468 27.834 9.81468H29.3198V18.4149C29.3198 20.4968 30.1866 22.9505 34.2725 22.9505C35.2383 22.9505 36.1546 22.7522 37.0213 22.3556C37.8632 21.9095 38.0366 21.2403 38.0366 20.7694C38.0366 20.2985 37.8632 19.8772 37.5166 19.555C37.0461 19.1089 36.3031 19.0097 35.8574 19.1089H35.8822Z" fill="#080808"/>
<path d="M47.9175 6.24567H47.7689C46.2831 6.24567 44.9211 6.69179 43.6829 7.85666C43.6086 7.46011 43.4353 7.11313 43.1381 6.81571C42.3704 6.07218 41.0827 6.07218 40.3398 6.81571C39.9684 7.18748 39.7703 7.65839 39.7703 8.17886V21.0668C39.7703 21.6121 39.9684 22.0582 40.3398 22.4299C40.7113 22.8017 41.1818 22.9752 41.7266 22.9752C42.2714 22.9752 42.7419 22.8017 43.1133 22.4299C43.5096 22.0582 43.7077 21.5873 43.7077 21.0668V12.1692C44.1782 11.5248 44.7477 11.0043 45.3916 10.6325C46.085 10.236 46.8526 10.0377 47.8432 10.0377C48.388 10.0377 48.8585 9.86421 49.2547 9.51722C49.6261 9.17024 49.849 8.69933 49.849 8.15408C49.849 7.60882 49.6757 7.1627 49.3042 6.79093C48.9328 6.41916 48.4623 6.22089 47.9175 6.22089V6.24567Z" fill="#080808"/>
<path d="M54.0092 0H53.8358C53.2415 0 52.7462 0.198276 52.3253 0.619612C51.9043 1.04095 51.7062 1.53664 51.7062 2.25539C51.7062 2.85022 51.929 3.34591 52.3253 3.76724C52.7462 4.18858 53.2415 4.38685 53.8358 4.38685H54.0092C54.6035 4.38685 55.0988 4.18858 55.5198 3.76724C55.9407 3.34591 56.1388 2.85022 56.1388 2.13147C56.1388 1.53664 55.916 1.04095 55.5198 0.619612C55.0988 0.198276 54.6035 0 54.0092 0Z" fill="#080808"/>
<path d="M52.5233 6.81574C52.1518 7.18751 51.9537 7.65842 51.9537 8.20368V21.042C51.9537 21.5873 52.1518 22.0334 52.5233 22.43C52.8947 22.8017 53.3653 23 53.9101 23C54.4549 23 54.9254 22.8265 55.2968 22.4548C55.693 22.083 55.8911 21.6121 55.8911 21.0668V8.20368C55.8911 7.63363 55.693 7.16273 55.3216 6.79096C54.6034 6.07221 53.2662 6.02264 52.4985 6.79096L52.5233 6.81574Z" fill="#080808"/>
<path d="M66.6387 9.96333C67.2578 9.96333 67.7778 10.0377 68.1493 10.1616C68.5702 10.2855 69.0903 10.5334 69.6846 10.8308C70.4275 11.2521 71.2695 11.1282 71.839 10.5086C72.1609 10.1616 72.3343 9.74027 72.3343 9.29415C72.3343 8.67454 72.0371 8.12928 71.4676 7.75752C70.7989 7.33618 70.056 6.96441 69.2636 6.69178C68.4464 6.41915 67.4806 6.27045 66.391 6.27045C64.9052 6.27045 63.4937 6.61743 62.2308 7.28661C60.9431 7.95579 59.903 8.94717 59.1601 10.1864C58.3924 11.4504 57.9962 12.9375 57.9962 14.6228C57.9962 16.3082 58.3924 17.7952 59.1353 19.0592C59.903 20.3232 60.9431 21.2898 62.206 21.959C63.469 22.6282 64.8805 22.9504 66.3663 22.9504C67.4559 22.9504 68.4216 22.8017 69.2388 22.5291C70.0313 22.2564 70.7742 21.8847 71.4428 21.4633C72.0124 21.0916 72.3095 20.5711 72.3095 19.9267C72.3095 19.4806 72.1362 19.084 71.8142 18.7123C71.2447 18.0926 70.4027 17.9935 69.6846 18.3901C69.0903 18.7123 68.5702 18.9353 68.1245 19.0592C67.7283 19.1832 67.233 19.2575 66.6139 19.2575C65.1033 19.2575 63.9395 18.8362 63.1223 17.9935C62.2803 17.1508 61.8593 16.0355 61.8593 14.6228C61.8593 13.2101 62.2803 12.0948 63.1223 11.2521C63.9642 10.4095 65.1033 9.98812 66.6139 9.98812L66.6387 9.96333Z" fill="#080808"/>
<path d="M78.7232 16.0604H87.1427C87.7123 16.0604 88.1828 15.8621 88.5543 15.4903C88.9009 15.1185 89 14.7468 89 14.2263C89 12.8136 88.7028 11.5 88.1085 10.2856C87.5142 9.07113 86.6475 8.07975 85.5083 7.361C84.3445 6.61746 82.9825 6.2457 81.4471 6.2457C79.788 6.2457 78.3765 6.66703 77.2126 7.43535C76.0735 8.22846 75.2315 9.2694 74.6619 10.5334C74.1419 11.7726 73.8695 13.1358 73.8695 14.5981C73.8695 17.2004 74.5876 19.2823 76.0487 20.7446C77.485 22.2069 79.4908 22.9504 82.0167 22.9504C83.2549 22.9504 84.2454 22.8265 85.0626 22.6035C85.8303 22.3804 86.6227 22.0334 87.4399 21.5873C88.3066 21.0668 88.5047 20.4224 88.5047 19.9763C88.5047 19.4806 88.3066 19.0345 87.9599 18.7123C87.3904 18.1918 86.5732 18.0679 85.9293 18.3901C84.1711 19.0841 82.4377 19.5054 81.4224 19.5054C79.7632 19.5054 78.3765 18.5884 77.9307 17.0517C77.7821 16.556 78.2031 16.0604 78.7232 16.0604ZM77.9307 12.1444C78.3765 10.6326 79.7632 9.51725 81.4224 9.51725C83.0815 9.51725 84.493 10.6326 84.914 12.1444C85.0626 12.6649 84.6664 13.1606 84.1216 13.1606H78.7232C78.2031 13.1606 77.7821 12.6649 77.9307 12.1444Z" fill="#080808"/>
<path d="M17.582 20.819C15.0809 23.3222 11.094 23.7188 8.32049 21.7113C8.2462 21.6617 8.14714 21.5873 8.09762 21.5378C6.28988 19.7285 4.50691 17.8944 2.69917 16.11C1.21336 14.5981 0.12377 12.7888 -4.76516e-05 10.6574C-0.0743381 8.64983 0.668567 6.71664 2.08009 5.30393C4.68025 2.67677 8.86528 2.55285 11.6636 4.90737C11.8369 4.98173 11.9855 5.10565 12.1341 5.25436L18.2259 11.3761C18.2259 11.3761 18.3497 11.5496 18.3992 11.5992C20.3803 14.3998 20.0336 18.3406 17.582 20.7942V20.819ZM9.55866 7.83194C8.19667 6.4688 5.96795 6.44401 4.60596 7.83194C3.24397 9.21988 3.24397 11.4505 4.60596 12.8136C5.126 13.3341 9.63295 17.9936 10.4997 18.8858C11.8369 19.7781 13.818 19.5302 15.0562 18.291C16.2696 17.0766 16.4924 15.1929 15.5762 13.805L9.55866 7.83194Z" fill="#080808"/>
</g>
<defs>
<clipPath id="clip0_211_849">
<rect width="89" height="23" fill="white"/>
</clipPath>
</defs>
</svg>
