<svg width="106" height="29" viewBox="0 0 106 29" fill="none" xmlns="http://www.w3.org/2000/svg">
<g clip-path="url(#clip0_211_3023)">
<path d="M42.7362 23.478L42.3822 23.5666C41.4384 23.8617 40.4651 23.8027 39.9048 23.478C39.7573 23.3894 39.6098 23.0647 39.6098 22.3563V12.4085H42.8836C43.4735 12.4085 44.0044 12.1724 44.4173 11.7591C44.8007 11.3459 45.0072 10.844 45.0072 10.2832C45.0072 9.72233 44.8007 9.16148 44.3878 8.77773C43.9749 8.36447 43.4735 8.15784 42.8836 8.15784H39.6098V6.06202C39.6098 5.67828 39.4624 5.32406 39.2264 5.08791C38.6955 4.49754 37.7812 4.4385 37.0734 5.14695L32.3249 9.81088C31.8235 10.1946 31.735 10.6669 31.735 10.9916C31.735 11.3754 31.8825 11.7296 32.148 11.9953C32.4134 12.2609 32.7673 12.4085 33.1507 12.4085H34.9204V22.6515C34.9204 25.131 35.9526 28.0534 40.8191 28.0534C41.9693 28.0534 43.0606 27.8172 44.0929 27.3449C45.0956 26.8136 45.3021 26.0166 45.3021 25.4557C45.3021 24.8949 45.0956 24.3931 44.6827 24.0093C44.1224 23.478 43.2375 23.3599 42.7067 23.478H42.7362Z" fill="#080808"/>
<path d="M57.0702 8.15745H56.8933C55.1236 8.15745 53.5015 8.68878 52.0268 10.0762C51.9383 9.60386 51.7319 9.1906 51.378 8.83638C50.4637 7.95082 48.93 7.95082 48.0452 8.83638C47.6028 9.27916 47.3668 9.84001 47.3668 10.4599V25.8096C47.3668 26.459 47.6028 26.9903 48.0452 27.4331C48.4876 27.8759 49.048 28.0825 49.6968 28.0825C50.3457 28.0825 50.9061 27.8759 51.3485 27.4331C51.8204 26.9903 52.0563 26.4295 52.0563 25.8096V15.2124C52.6167 14.4449 53.295 13.825 54.0619 13.3822C54.8877 12.9099 55.802 12.6738 56.9817 12.6738C57.6306 12.6738 58.191 12.4672 58.6629 12.0539C59.1053 11.6406 59.3707 11.0798 59.3707 10.4304C59.3707 9.78097 59.1643 9.24964 58.7219 8.80686C58.2795 8.36408 57.7191 8.12793 57.0702 8.12793V8.15745Z" fill="#080808"/>
<path d="M64.3255 0.719238H64.119C63.4112 0.719238 62.8213 0.955387 62.3199 1.4572C61.8185 1.95902 61.5826 2.54939 61.5826 3.40543C61.5826 4.11388 61.848 4.70425 62.3199 5.20607C62.8213 5.70788 63.4112 5.94403 64.119 5.94403H64.3255C65.0333 5.94403 65.6232 5.70788 66.1246 5.20607C66.626 4.70425 66.8619 4.11388 66.8619 3.25784C66.8619 2.54939 66.5965 1.95902 66.1246 1.4572C65.6232 0.955387 65.0333 0.719238 64.3255 0.719238Z" fill="#080808"/>
<path d="M62.5559 8.83645C62.1135 9.27923 61.8776 9.84008 61.8776 10.4895V25.7801C61.8776 26.4295 62.1135 26.9609 62.5559 27.4332C62.9983 27.8759 63.5587 28.1121 64.2076 28.1121C64.8564 28.1121 65.4168 27.9055 65.8592 27.4627C66.3311 27.0199 66.567 26.4591 66.567 25.8096V10.4895C66.567 9.81056 66.3311 9.24971 65.8887 8.80693C65.0334 7.95089 63.4407 7.89185 62.5264 8.80693L62.5559 8.83645Z" fill="#080808"/>
<path d="M79.3674 12.5858C80.1047 12.5858 80.7241 12.6743 81.1665 12.8219C81.6679 12.9695 82.2872 13.2647 82.9951 13.6189C83.8799 14.1207 84.8827 13.9731 85.561 13.2352C85.9444 12.8219 86.1509 12.3201 86.1509 11.7888C86.1509 11.0508 85.797 10.4014 85.1186 9.95862C84.3223 9.4568 83.4375 9.01402 82.4937 8.68932C81.5204 8.36461 80.3701 8.1875 79.0724 8.1875C77.3028 8.1875 75.6217 8.60076 74.1175 9.39776C72.5838 10.1948 71.3451 11.3755 70.4603 12.8514C69.546 14.3569 69.0741 16.128 69.0741 18.1353C69.0741 20.1425 69.546 21.9136 70.4308 23.4191C71.3451 24.9245 72.5838 26.0758 74.088 26.8728C75.5922 27.6698 77.2733 28.0535 79.0429 28.0535C80.3406 28.0535 81.4909 27.8764 82.4642 27.5517C83.408 27.227 84.2928 26.7842 85.0891 26.2824C85.7675 25.8396 86.1214 25.2197 86.1214 24.4522C86.1214 23.9209 85.9149 23.4486 85.5315 23.0058C84.8532 22.2679 83.8504 22.1498 82.9951 22.6221C82.2872 23.0058 81.6679 23.2715 81.137 23.4191C80.6651 23.5667 80.0752 23.6552 79.3379 23.6552C77.5388 23.6552 76.1526 23.1534 75.1793 22.1498C74.1765 21.1462 73.6751 19.8178 73.6751 18.1353C73.6751 16.4527 74.1765 15.1244 75.1793 14.1207C76.1821 13.1171 77.5388 12.6153 79.3379 12.6153L79.3674 12.5858Z" fill="#080808"/>
<path d="M93.7602 19.8471H103.788C104.466 19.8471 105.027 19.6109 105.469 19.1682C105.882 18.7254 106 18.2826 106 17.6627C106 15.9801 105.646 14.4157 104.938 12.9692C104.23 11.5228 103.198 10.3421 101.841 9.48605C100.455 8.60049 98.8331 8.15771 97.0045 8.15771C95.0284 8.15771 93.3473 8.65953 91.9611 9.57461C90.6044 10.5192 89.6016 11.759 88.9232 13.2644C88.3039 14.7404 87.9794 16.3639 87.9794 18.1055C87.9794 21.2049 88.8347 23.6845 90.5749 25.4261C92.2855 27.1677 94.6745 28.0533 97.6828 28.0533C99.1575 28.0533 100.337 27.9057 101.311 27.64C102.225 27.3743 103.169 26.9611 104.142 26.4297C105.174 25.8098 105.41 25.0424 105.41 24.511C105.41 23.9206 105.174 23.3893 104.761 23.0056C104.083 22.3857 103.11 22.2381 102.343 22.6218C100.249 23.4483 98.1842 23.9502 96.975 23.9502C94.9989 23.9502 93.3473 22.858 92.8164 21.0278C92.6394 20.4375 93.1408 19.8471 93.7602 19.8471ZM92.8164 15.1831C93.3473 13.3825 94.9989 12.0542 96.975 12.0542C98.9511 12.0542 100.632 13.3825 101.134 15.1831C101.311 15.803 100.839 16.3934 100.19 16.3934H93.7602C93.1408 16.3934 92.6394 15.803 92.8164 15.1831Z" fill="#080808"/>
<path d="M20.9405 25.5147C17.9616 28.4961 13.2131 28.9684 9.90986 26.5773C9.82138 26.5183 9.7034 26.4298 9.64441 26.3707C7.49138 24.2159 5.36784 22.0315 3.21481 19.9061C1.44519 18.1055 0.147475 15.9507 7.0245e-06 13.4121C-0.0884738 11.021 0.796334 8.71859 2.47747 7.03603C5.5743 3.90706 10.5587 3.75947 13.8915 6.56374C14.0979 6.65229 14.2749 6.79988 14.4519 6.977L21.7073 14.2681C21.7073 14.2681 21.8548 14.4747 21.9138 14.5338C24.2732 17.8694 23.8603 22.5628 20.9405 25.4852V25.5147ZM11.3845 10.0469C9.76239 8.42341 7.10796 8.39389 5.48582 10.0469C3.86367 11.7 3.86367 14.3566 5.48582 15.9802C6.10518 16.6001 11.473 22.1496 12.5053 23.2122C14.0979 24.2749 16.4574 23.9797 17.9321 22.5038C19.3773 21.0574 19.6427 18.814 18.5515 17.1609L11.3845 10.0469Z" fill="#080808"/>
</g>
<defs>
<clipPath id="clip0_211_3023">
<rect width="106" height="27.3933" fill="#080808" transform="translate(0 0.719238)"/>
</clipPath>
</defs>
</svg>
