<svg width="16" height="16" viewBox="0 0 16 16" fill="none" xmlns="http://www.w3.org/2000/svg">
<g clip-path="url(#clip0_139_292)">
<path d="M8.00004 -8.7738e-05C12.4183 -8.7738e-05 16.0001 3.58165 16.0001 7.99996C16.0001 12.4183 12.4183 16 8.00004 16C3.58174 16 0 12.4183 0 7.99996C0 3.58165 3.58174 -8.7738e-05 8.00004 -8.7738e-05Z" fill="#00309A"/>
<path d="M8.00004 12.8918L8.14099 12.4645L8.59097 12.4624L8.22813 12.1963L8.36527 11.7677L8.00004 12.0305L7.63472 11.7677L7.77186 12.1963L7.40903 12.4624L7.859 12.4645L8.00004 12.8918Z" fill="#FDCB00"/>
<path d="M5.88206 12.3044L6.0231 11.877L6.47308 11.8749L6.11024 11.6088L6.24729 11.1802L5.88206 11.443L5.51683 11.1802L5.65388 11.6088L5.29105 11.8749L5.74102 11.877L5.88206 12.3044Z" fill="#FDCB00"/>
<path d="M4.3043 10.8012L4.44525 10.3739L4.89523 10.3718L4.5324 10.1057L4.66953 9.67708L4.3043 9.93992L3.93907 9.67708L4.07612 10.1057L3.71329 10.3718L4.16327 10.3739L4.3043 10.8012Z" fill="#FDCB00"/>
<path d="M3.67021 8.56207L3.81125 8.1347L4.26123 8.13266L3.89839 7.86654L4.03544 7.43793L3.67021 7.70077L3.30498 7.43793L3.44212 7.86654L3.07928 8.13266L3.52926 8.1347L3.67021 8.56207Z" fill="#FDCB00"/>
<path d="M4.37895 6.49063L4.51999 6.06326L4.96997 6.06122L4.60713 5.7951L4.74418 5.36648L4.37895 5.62933L4.01372 5.36648L4.15086 5.7951L3.78802 6.06122L4.238 6.06326L4.37895 6.49063Z" fill="#FDCB00"/>
<path d="M5.80733 4.98752L5.94837 4.56024L6.39834 4.5582L6.03551 4.29199L6.17265 3.86337L5.80733 4.12621L5.4421 3.86337L5.57924 4.29199L5.2164 4.5582L5.66638 4.56024L5.80733 4.98752Z" fill="#FDCB00"/>
<path d="M8.00004 4.23222L8.14099 3.80494L8.59097 3.8029L8.22813 3.53669L8.36527 3.10817L8.00004 3.37101L7.63472 3.10817L7.77186 3.53669L7.40903 3.8029L7.859 3.80494L8.00004 4.23222Z" fill="#FDCB00"/>
<path d="M10.1927 4.98752L10.3336 4.56024L10.7836 4.5582L10.4208 4.29199L10.5579 3.86337L10.1927 4.12621L9.82744 3.86337L9.96449 4.29199L9.60165 4.5582L10.0516 4.56024L10.1927 4.98752Z" fill="#FDCB00"/>
<path d="M11.621 6.49063L11.7621 6.06326L12.2121 6.06122L11.8492 5.7951L11.9863 5.36648L11.621 5.62933L11.2558 5.36648L11.393 5.7951L11.0301 6.06122L11.4801 6.06326L11.621 6.49063Z" fill="#FDCB00"/>
<path d="M12.3298 8.56207L12.4708 8.1347L12.9208 8.13266L12.558 7.86654L12.695 7.43793L12.3298 7.70077L11.9646 7.43793L12.1017 7.86654L11.7388 8.13266L12.1888 8.1347L12.3298 8.56207Z" fill="#FDCB00"/>
<path d="M11.6958 10.8012L11.8367 10.3739L12.2867 10.3718L11.9239 10.1057L12.061 9.67708L11.6958 9.93992L11.3305 9.67708L11.4676 10.1057L11.1048 10.3718L11.5547 10.3739L11.6958 10.8012Z" fill="#FDCB00"/>
<path d="M10.1179 12.3044L10.259 11.877L10.709 11.8749L10.3461 11.6088L10.4833 11.1802L10.1179 11.443L9.75271 11.1802L9.88985 11.6088L9.52701 11.8749L9.97699 11.877L10.1179 12.3044Z" fill="#FDCB00"/>
</g>
<defs>
<clipPath id="clip0_139_292">
<rect width="16" height="16" fill="white" transform="matrix(1 0 0 -1 0 16)"/>
</clipPath>
</defs>
</svg>
